<?xml version="1.0" encoding="UTF-8"?>
<svg xmlns="http://www.w3.org/2000/svg" version="1.1" viewBox="0 0 500 620">
  <!-- Generator: Adobe Illustrator 29.2.1, SVG Export Plug-In . SVG Version: 2.1.0 Build 116)  -->
  <path id="am"
        d="M0,489.8c2.2.5,4.3-2,5.8-2.6,3.8-1.4,9.1-1.3,12.9-3.9,3-2,4.2-5.4,6.4-7.7,6.8-1.8,10.9-7.8,9.7-14.8s-1.2-.8-1.3-1.3c-1.1-4.6-3-8.9-3.9-12.9s1-5-1.3-6.4v-2.6c5-5.6,5.6-13.3,9-19.3s6.7-8.7,9.7-11c6.4-5,20.8-9.9,25.1-16.1s.2-2.5,1.9-3.2c6.7,4.7,13.8-3.8,20.6-2.6s6.5,1.8,9,2.6,3.4-1.2,3.9-1.3c1.2-.3,2.8.3,3.9,0,2.9-.8,8.2-6,10.3-6.4s12.9.6,13.5,0c.2-1.9-.3-4,0-5.8,2.3-14.5.1-22.6-2.6-36.1s-2.4-9.1-3.9-14.2-2.1-1.7-2.6-2.6c-.7-1.3.9-3-4.5-1.9s-.8,1.2-1.3,1.3c-1.6.2-6.5.3-7.7,0s-1.7-2.1-2.6-2.6-3.3-.9-3.9-1.3c-5.2-3.4-5.7-7.8-8.4-12.2s-4.9-5.7-5.2-6.4c-1.3-4.6-2.6-8.8-3.9-12.9-2.8-9.2-4.9-16.5-3.9-27.1s.6-9.9,1.3-12.9c1.3-5.8-.6-13.8,1.3-20.6s5-2.9,3.9-6.4-.7-5.4-1.3-9,.5-4.2,0-6.4c-2.6-11.1-.7-22.6,0-33.5.5-7.6-.3-14.7,1.3-21.9s6.9-11.9,7.7-15.5-.2-3.1,0-4.5l2.6,1.3.6-3.9,5.8-8.4-2.6-.6,1.3-1.9-1.3-1.9c2.2,0,4.8-1.4,6.4-3.2l-6.4.6c-.5-2.3,2.2-.9,2.6-1.3s-.4-2.4,1.9-3.9,2.8-.3,3.2-1.9.5-3.2-.6-3.2l-3.2,2.6v-3.9l5.2-1.3-1.3-5.2c2.4.3,3.7,0,5.2-1.9l-1.3-1.9h2.6l-1.3-5.2,5.2,1.3-2.6-6.4,5.2,1.3,1.3-3.2-1.3-1.9c1.9.4,2.7-.6,3.9-1.9l-2.6-4.5c1.4-.2,3.3.3,4.5,0s2.7-3.5,3.2-4.5c3.1-6.2,7.6-12.4,11.6-18s.5-4,3.9-3.2l-1.3-2.6h6.4c-.2-5.3,3.9-3.2,7.1-3.9s4.3-3.8,7.1-2.6v-2.6c2.8-1,4.6,1,5.8,1.3s3.4-2.2,5.8-1.3l-2.6-5.8c1.8-.8,2.3-5.6,2.6-5.8s1.3.3,1.9,0c1.2-.7,3-3.6,3.9-3.9s1.8.2,2.6,0,.8-1.2,1.3-1.3c1-.3,9.3,3.6,11.6,0l3.9,2.6c3.9-2.3,3.6.8,5.2,1.3,2.3.7,5.7.7,7.7,1.3s1.9,2.4,2.6,2.6c1.2.3,6.1.2,7.7,0s.8-1.2,1.3-1.3c1.4-.2,5.5.3,5.8,0s-.1-3.1,1.9-3.9l4.5,2.6v-3.9c3.5.9,6.5-2.2,9.7-1.3s1.9,2.4,2.6,2.6c1.5.4,4-.3,5.8,0l-3.9-4.5c1.2-2.2,2.5.3,3.2.6s1.7-.2,1.9,0-.3,2.3,0,3.2,2,1.1,1.3,3.2h2.6v2.6c3.1-.4,6,.4,8.4,2.6.7-2.3,4.6,1.2,5.8,0s-1-6.3-3.9-5.2c2.6-3-.9-3-1.3-4.5s.6-3.8-1.3-5.8h2.6v-3.9c5.8-1.3,8.2,4.3,12.2,7.7l2.6-2.6c2.7,2,.8,5,5.2,3.9s1.1-2,3.2-1.3c-.5,2.6,2,4.6,4.5,3.9s3-1.1,6.4,0,.7,1,1.3,1.3l.6-1.9,2.6-.6c.2,1.9-.3,4,0,5.8s1.2.8,1.3,1.3c.6,3.3-1.4,7.2,3.9,7.1v3.9c2.4.4.9-2,1.3-3.2s4.3-2,5.2-3.9l-2.6-5.8c3.6-.9,6.3,2,9.7,1.3s1.1-2,3.2-1.3c-.2,2.8,2.8,4.9,2.6,7.7h7.7l.6-2.6c3.1,1.8,1.4,4.6,1.9,7.1s1.2.8,1.3,1.3c.6,2.2,1.2,4.8,1.3,7.1h2.6v2.6h2.6l-1.3,5.2,2.6-3.2v-4.5l3.9,2.6,1.9-7.7c4,2.7,3.4,5.8,3.2,10.3h2.6v2.6c2.1-.6,2.3.9,3.2,1.3,2.8,1.3,1.5-3.3,2.6-2.6,3.1,2.2,1.7,5.8,1.9,9l3.2-2.6c2,1.4,2.2,2.8,1.9,5.2,3.8-.6,2,.9,2.6,1.9,1.1,1.9,4.6,2.9,3.9,5.8h3.9l-1.3,5.2,2.6-.6-1.3,4.5c.5.5,6.4-2.6,7.7-1.3s-.8,3.9,1.9,5.2.9-3.2,3.2-2.6c-.7,2.1,1.2,2.7,1.3,3.2.6,3.7.3,14.1-1.3,16.8s-3.1,2.6-3.9,3.9.2,1.9-1.3,2.6l1.3,5.8h5.2c.2,1.4-.3,3.2,0,4.5.8,3.5,2.7,8.8,3.9,12.9s2.4,1.9,2.6,2.6c.5,1.7-.3,4.5,0,6.4s2,1.2,1.3,3.2h2.6l-1.3,5.2h3.9c.7,2-1.3,2.9-1.3,3.2,0,.6,3.6,4,2.6,7.7s-2.5-.3-1.3,5.2-1.3,16-3.9,21.9c2.5,17.4-1.4,37.4,1.3,55.4l-1.3,3.9c3,2.1.2,3.1,0,3.9-.3,1.5.4,3.8,0,5.2s-2.1,1.7-2.6,2.6.2,1.7,0,1.9-6.2,2.3-6.4,2.6-1.3,6.3-5.2,5.2v2.6c-3.7-.5-2,.6-2.6,1.9s-1.2.8-1.3,1.3c-.3,2,.3,4.5,0,6.4-1,6-2.9,13.1-3.9,19.3-.8,5.3-.3,9.2-2.6,14.2s-5,5.8-5.2,6.4c-.4,1.4.3,3.6,0,5.2s-1.2.8-1.3,1.3c-.8,3.3,2,5.6,1.3,9s-2.4,4.9-2.6,5.2c-.5.8-3.8,4.1-4.5,4.5-2.2,1.2-3.1,2.4-4.5,5.8-3.1,7.5-3.6,7-7.7,12.9s-3.4,4.9-5.2,7.7-3.6,4.1-5.2,6.4-.9,3-1.3,3.9-1.2.8-1.3,1.3c-.2,1-.2,4,0,5.2s1.1.8,1.3,1.3c.2.8-.2,1.8,0,2.6s2.1,1.7,2.6,2.6-.2,1.7,0,1.9,1.2-.3,1.9,0c3.4,1.4,8.3,4.4,11.6,6.4s5.9,4.4,9,6.4,1.5,2.3,1.9,3.2,1.1.8,1.3,1.3-.2,1.7,0,2.6,1.2.8,1.3,1.3c.5,3.1-.5,7.2,0,10.3s-.5,7.1,0,11.6c1.3,12.2,3,29.2,0,41.2s-3.9,25.8-6.4,38.7-1.2.8-1.3,1.3c-.2,1.4-.3,9.3,0,9.7s3.3-.2,3.9,1.9c1,3.5,1.9,4.7,3.9,7.7s6.5,2.5,9.7,3.2,4.1,3.6,6.4,2.6c2,3.1,18.5,15,20.6,15.5,10.8,2.4,20.9,8.4,30.9,12.9,15.4,6.9,27,14.1,39.9,23.2s2.9,4.4,5.8,3.9v24.5H0v-130.2Z" />
</svg>
