<?xml version="1.0" encoding="UTF-8"?>
<svg id="logo" xmlns="http://www.w3.org/2000/svg" viewBox="0 0 400 729">
  <defs>
    <style>
      .cls-1 {
        fill: #1d1d1d;
      }
    </style>
  </defs>
  <polygon id="A" class="cls-1" points="200 0 0 340 69.02 340 69.41 340 256.98 340 221.68 280 104.71 280 200 118 330.59 340 400 340 200 0"/>
  <path id="M3" class="cls-1" d="M360,388v340s-60,0-60,0v-280c23.43-23.43,36.57-36.57,60-60h0Z"/>
  <rect id="M1" class="cls-1" x="-100" y="528" width="340" height="60" transform="translate(-488 628) rotate(-90)"/>
  <path id="M2" class="cls-1" d="M230,388v100c-23.43,23.43-36.57,36.57-60,60h0v-160h60ZM230,729v-160h0c-23.43,23.43-36.57,36.57-60,60v100h60Z"/>
</svg>