<?xml version="1.0" encoding="UTF-8" standalone="no"?><!DOCTYPE svg PUBLIC "-//W3C//DTD SVG 1.1//EN"
  "http://www.w3.org/Graphics/SVG/1.1/DTD/svg11.dtd">
<svg width="100%" height="100%" viewBox="0 0 1920 1385" version="1.1" xmlns="http://www.w3.org/2000/svg"
     xml:space="preserve"
     style="fill-rule:evenodd;clip-rule:evenodd;stroke-linecap:round;stroke-linejoin:round;stroke-miterlimit:1.5;">
  <g id="Layer1">
    <path id="bg"
          d="M959.913,-0l-238.985,139.06l-0.964,275.746l-241.015,138.524l-239,-138.524l-239.949,138.524l0,276.67l239.949,139.47l-0.949,278.53l240.898,136.664l240.102,-140.664l240,141l239,-138l239.949,137.664l240.011,-141.664l-0,-274.97l241.04,-141.03l0,-273.134l-239.989,-139.06l0,-276.282l-240.011,-138.524l-240,138.524l-240.087,-138.524Z"
          style="fill:#5af4ed;" />
    <path
      id="blue-shape"
      d="M958.964,553.33l241.036,139.17l0,276.024l-241.036,138.524l-0,277.952l-239.949,-139l0,-277.476l241.015,-138.524l-1.066,-276.67Z"
      style="fill:#0661ed;" />
    <path id="red-shape"
          d="M1200,691.854l239.928,-138.524l241.072,139.17l239,-139.17l0,276.67l-239.989,139.165l-240.011,-138.165l-240,138.47l0,-277.616Z"
          style="fill:#ff0d2d;" />
    <path d="M1200,414.806l239.928,139.06l-239.928,137.988l-239.97,-137.988l239.97,-139.06Z"
          style="fill:#141414;stroke:#000;stroke-width:1px;" />
    <path
      d="M1054,810.563l0,-126.563l28.25,16.311l40.14,102.5l0,-79.325l26.86,15.509l0,126.564l-28.4,-16.401l-39.99,-99.024l0.01,75.938l-26.87,-15.509Z"
      style="fill:#fff;fill-rule:nonzero;" />
    <path d="M1008,784.564l0,-126.564l26.86,15.51l0.01,126.563l-26.87,-15.509Z" style="fill:#fff;fill-rule:nonzero;" />
    <path
      d="M1325,818.267l0,-124.857l38.53,-22.247c17.87,-10.317 31.58,-12.779 41.12,-7.387c9.64,5.217 14.47,17.849 14.47,37.896c0,19.93 -4.73,38.014 -14.17,54.252c-9.44,16.237 -22.94,29.427 -40.51,39.568l-39.44,22.775Zm26.5,-40.272l12.03,-6.946c9.74,-5.628 16.9,-12.809 21.47,-21.543c4.57,-8.735 6.86,-19.491 6.86,-32.27c0,-12.778 -2.29,-20.897 -6.86,-24.355c-4.57,-3.459 -11.72,-2.374 -21.47,3.254l-12.03,6.946l0,74.914Z"
      style="fill:#fff;fill-rule:nonzero;" />
    <path
      d="M1264.01,856.013c-13.81,7.972 -24.47,10.493 -31.98,7.563c-7.52,-2.931 -11.53,-10.639 -12.03,-23.125l26.95,-16.619c0.51,5.452 2.18,8.764 5.03,9.936c2.94,1.113 6.95,0.205 12.03,-2.726c3.35,-1.935 6.24,-4.192 8.68,-6.771c2.54,-2.755 4.52,-5.657 5.94,-8.705c1.42,-3.165 2.13,-6.389 2.13,-9.672c-0,-5.276 -1.57,-8.353 -4.72,-9.232c-3.15,-0.879 -7.46,0.264 -12.95,3.429l-10.05,5.804l-0,-21.454l10.06,-5.804c4.06,-2.345 7.46,-5.364 10.2,-9.057c2.74,-3.693 4.11,-7.942 4.11,-12.749c0,-4.221 -1.12,-6.976 -3.35,-8.265c-2.13,-1.348 -5.63,-0.615 -10.51,2.198c-4.97,2.873 -8.68,6.243 -11.11,10.112c-2.44,3.869 -3.96,7.797 -4.57,11.783l-26.65,13.805c1.11,-11.665 5.33,-22.89 12.64,-33.676c7.41,-10.845 17.31,-19.843 29.69,-26.995c8.94,-5.159 16.45,-8.031 22.54,-8.617c6.09,-0.704 10.66,0.703 13.71,4.22c3.15,3.458 4.72,8.88 4.72,16.266c-0,7.269 -2.13,14.537 -6.4,21.806c-4.26,7.269 -10.25,13.951 -17.97,20.048l-0,-2.814c9.04,-3.576 15.94,-3.986 20.71,-1.231c4.77,2.755 7.16,8.47 7.16,17.145c-0,7.972 -1.78,15.798 -5.33,23.477c-3.55,7.679 -8.63,14.948 -15.23,21.806c-6.6,6.859 -14.42,12.897 -23.45,18.114Z"
      style="fill:#fff;fill-rule:nonzero;" />
    <path
      d="M1270.53,586.021c-5.52,3.188 -11.52,5.2 -18.01,6.035c-6.49,0.836 -13.03,0.589 -19.62,-0.742c-6.6,-1.331 -12.84,-3.699 -18.74,-7.103c-5.73,-3.312 -9.76,-6.902 -12.06,-10.771c-2.31,-3.869 -2.71,-7.722 -1.21,-11.56c1.5,-3.9 5.15,-7.521 10.94,-10.864c5.09,-2.94 10.19,-4.921 15.28,-5.942c5.09,-1.084 10.21,-1.347 15.36,-0.79c5.2,0.527 10.35,1.765 15.44,3.714l-13.83,8.729c-3.6,-1.455 -7.08,-2.167 -10.46,-2.136c-3.43,-0 -6.83,0.975 -10.21,2.925c-2.95,1.702 -4.61,3.59 -4.99,5.664c-0.37,2.073 0.33,4.209 2.09,6.406c1.77,2.136 4.45,4.241 8.05,6.314c3.59,2.074 7.26,3.637 11.01,4.689c3.7,1.022 7.32,1.409 10.86,1.161c3.59,-0.279 6.94,-1.315 10.05,-3.111c2.25,-1.299 3.75,-2.661 4.51,-4.085c0.8,-1.455 0.93,-2.894 0.4,-4.318c-0.59,-1.454 -1.77,-2.816 -3.54,-4.085l-11.82,6.825l-9.73,-5.618l25.73,-14.856l30,17.317l-8.37,4.828l-12.62,-6.453l2.09,-0.65c1.98,1.764 3.03,3.729 3.13,5.896c0.11,2.104 -0.67,4.255 -2.33,6.453c-1.61,2.166 -4.07,4.209 -7.4,6.128Z"
      style="fill:#fff;fill-rule:nonzero;" />
    <path
      d="M1185.1,633.607l-57.1,-32.963l14.72,-8.495l56.69,8.588l-35.78,-20.659l13.99,-8.078l57.09,32.962l-14.79,8.542l-55.09,-7.753l34.26,19.778l-13.99,8.078Z"
      style="fill:#fff;fill-rule:nonzero;" />
    <path d="M1161.09,648.04l-57.09,-32.962l13.99,-8.078l57.1,32.962l-14,8.078Z"
          style="fill:#fff;fill-rule:nonzero;" />
    <path
      d="M1259.88,511.414l-21.79,-12.581l-55.09,-8.96l15.28,-8.821l33.37,5.896l-10.45,-19.127l15.28,-8.821l15.68,31.708l21.79,12.582l-14.07,8.124Z"
      style="fill:#fff;fill-rule:nonzero;" />
    <path
      d="M1189.51,552.226l-36.51,-44.848l16.24,-9.378l77.68,21.078l-14.39,8.31l-14.48,-4.086l-21.23,12.257l7,8.403l-14.31,8.264Zm0,-25.256l13.67,-7.892l-26.86,-7.707l13.19,15.599Z"
      style="fill:#fff;fill-rule:nonzero;" />
    <path
      d="M1147.1,576.04l-57.1,-32.962l13.99,-8.078l53.8,31.059l-16,-0.14l33.45,-19.313l11.42,6.593l-39.56,22.841Z"
      style="fill:#fff;fill-rule:nonzero;" />
    <path
      d="M1092.1,608.212l-57.1,-32.962l23.64,-13.649c7.03,-4.055 14.24,-6.237 21.63,-6.546c7.4,-0.371 14.05,1.145 19.95,4.55c3.91,2.259 6.4,4.751 7.48,7.474c1.07,2.662 0.69,5.417 -1.13,8.264c-1.82,2.847 -5.07,5.618 -9.73,8.31l-9.65,5.571l18.9,10.91l-13.99,8.078Zm-16.41,-25.627l8.69,-5.014c2.84,-1.64 4.42,-3.296 4.74,-4.967c0.38,-1.702 -0.7,-3.281 -3.22,-4.736c-2.46,-1.423 -5.14,-2.042 -8.04,-1.857c-2.95,0.155 -5.87,1.068 -8.76,2.74l-8.69,5.014l15.28,8.82Z"
      style="fill:#fff;fill-rule:nonzero;" />
  </g>
</svg>
