<?xml version="1.0" encoding="UTF-8" standalone="no"?><!DOCTYPE svg PUBLIC "-//W3C//DTD SVG 1.1//EN" "http://www.w3.org/Graphics/SVG/1.1/DTD/svg11.dtd"><svg width="100%" height="100%" viewBox="0 0 2700 1060" version="1.1" xmlns="http://www.w3.org/2000/svg" xmlns:xlink="http://www.w3.org/1999/xlink" xml:space="preserve" xmlns:serif="http://www.serif.com/" style="fill-rule:evenodd;clip-rule:evenodd;stroke-linejoin:round;stroke-miterlimit:2;"><rect id="background-play" x="0" y="0" width="2700" height="1060" style="fill:none;"/><clipPath id="_clip1"><rect x="0" y="0" width="2700" height="1060"/></clipPath><g clip-path="url(#_clip1)"><rect x="-0" y="0" width="2700" height="1080" style="fill:#ff0d2d;"/><g><g><path d="M1350,530l450,265l-450,265l-450,-265l450,-265Z" style="fill:#5af4ed;"/></g><path d="M1350,0l450,265l0,530l-450,-265l0,-530Z" style="fill:#fff;"/><path d="M1350,0l-450,265l0,530l450,-265l0,-530Z" style="fill:#0661ed;"/></g><g><path d="M2250,530l450,265l-450,265l-450,-265l450,-265Z" style="fill:#5af4ed;"/></g><path d="M2250,0l-450,265l0,530l450,-265l0,-530Z" style="fill:#0661ed;"/><g><path d="M450,530l450,265l-450,265l-450,-265l450,-265Z" style="fill:#5af4ed;"/></g><path d="M450,0l450,265l0,530l-450,-265l0,-530Z" style="fill:#fff;"/><path d="M450,0l-450,265l0,530l450,-265l0,-530Z" style="fill:#0661ed;"/></g><path d="M2250,0l450,265l0,530l-450,-265l0,-530Z" style="fill:#fff;"/></svg>