<?xml version="1.0" encoding="UTF-8" standalone="no"?><!DOCTYPE svg PUBLIC "-//W3C//DTD SVG 1.1//EN"
  "http://www.w3.org/Graphics/SVG/1.1/DTD/svg11.dtd">
<svg width="100%" height="100%" viewBox="0 0 940 1080" version="1.1" xmlns="http://www.w3.org/2000/svg"
     xml:space="preserve">
  <g clip-path="url(#_clip1)">
    <path id="d"
          d="M-0,1080l-0,-1080l384.639,0c178.527,0 315.719,46.901 411.576,140.704c95.857,93.803 143.785,227.409 143.785,400.817c-0,172.394 -47.168,305.24 -141.503,398.535c-94.335,93.296 -229.245,139.944 -404.728,139.944l-393.769,0Zm264.747,-216.618l119.892,0c97.585,0 169.2,-26.311 214.846,-78.932c45.646,-52.637 68.469,-134.018 68.469,-244.141c0,-110.535 -22.823,-192.114 -68.469,-244.735c-45.646,-52.637 -117.261,-78.956 -214.846,-78.956l-119.892,-0l0,646.764Z"
          style="fill-rule:nonzero;" />
  </g>
</svg>
