<?xml version="1.0" encoding="UTF-8" standalone="no"?><!DOCTYPE svg PUBLIC "-//W3C//DTD SVG 1.1//EN"
        "http://www.w3.org/Graphics/SVG/1.1/DTD/svg11.dtd">
<svg width="100%" height="100%" viewBox="0 0 1160 400" version="1.1" xmlns="http://www.w3.org/2000/svg"
     xml:space="preserve"
     style="fill-rule:evenodd;clip-rule:evenodd;stroke-linejoin:round;stroke-miterlimit:2;"><path id="h" d="M83.102,131.741c0.568,-0.952 2.215,-3.269 6.484,-8.689c8.755,-11.12 19.65,-19.451 32.687,-24.991c13.037,-5.54 27.311,-8.31 42.824,-8.31c22.161,-0 40.703,4.764 55.627,14.292c14.924,9.528 26.171,22.807 33.743,39.837c7.571,17.024 11.357,36.545 11.357,58.561l0,190.911l-83.102,-0l-0,-171.304c-0,-22.01 -3.475,-38.573 -10.423,-49.688c-6.942,-11.121 -18.427,-16.681 -34.453,-16.681c-16.99,-0 -30.361,5.762 -40.114,17.287c-9.753,11.524 -14.63,28.624 -14.63,51.298l0,169.088l-83.102,-0l0,-393.352l83.102,0l0,131.741c-0.596,1 0,0.492 0,0.492l0,-0.492Z"/>
    <path id="e"
          d="M282.774,393.352l-0,-393.352l273.684,0l-0,70.802l-189.474,-0l0,90.304l182.826,0l-0,70.031l-182.826,0l0,91.413l193.906,0l-0,70.802l-278.116,-0Z"/>
    <path id="l1"
          d="M644.875,393.352c-24.076,-0 -43.023,-6.094 -56.838,-18.283c-13.816,-12.188 -20.724,-31.873 -20.724,-59.054l0,-316.015l83.103,0l-0,307.15c-0,8.564 2.068,14.751 6.206,18.56c4.138,3.803 10.048,5.704 17.729,5.704l19.832,0l-0,61.938l-49.308,-0Z"/>
    <path id="l2"
          d="M757.341,393.352c-24.077,-0 -43.023,-6.094 -56.839,-18.283c-13.816,-12.188 -20.724,-31.873 -20.724,-59.054l0,-316.015l83.103,0l-0,307.15c-0,8.564 2.069,14.751 6.207,18.56c4.137,3.803 10.047,5.704 17.728,5.704l19.832,0l0,61.938l-49.307,-0Z"/>
    <path id="o"
          d="M927.207,400c-30.286,0 -56.752,-6.389 -79.397,-19.166c-22.64,-12.782 -40.221,-30.825 -52.744,-54.129c-12.518,-23.309 -18.776,-50.585 -18.776,-81.83c-0,-31.394 6.258,-58.65 18.776,-81.769c12.523,-23.124 30.104,-41.13 52.744,-54.017c22.645,-12.892 49.111,-19.338 79.397,-19.338c30.287,-0 56.712,6.446 79.277,19.338c22.57,12.887 40.114,30.893 52.631,54.017c12.523,23.119 18.785,50.375 18.785,81.769c-0,31.245 -6.262,58.521 -18.785,81.83c-12.517,23.304 -30.061,41.347 -52.631,54.129c-22.565,12.777 -48.99,19.166 -79.277,19.166Zm0,-63.937c20.759,0 36.788,-7.976 48.087,-23.927c11.3,-15.956 16.95,-38.377 16.95,-67.261c-0,-28.658 -5.65,-51.021 -16.95,-67.088c-11.299,-16.066 -27.328,-24.099 -48.087,-24.099c-20.758,-0 -36.824,8.033 -48.199,24.099c-11.375,16.067 -17.062,38.43 -17.062,67.088c-0,28.884 5.687,51.305 17.062,67.261c11.375,15.951 27.441,23.927 48.199,23.927Z"
          style="fill-rule:nonzero;"/>
    <path id="qmark1"
          d="M1087.21,267.477c-1.772,-12.482 -3.749,-27.55 -5.93,-45.204c-2.176,-17.653 -4.04,-35.676 -5.592,-54.068c-1.553,-18.398 -2.329,-34.984 -2.329,-49.758l0,-118.447l83.882,0l-0,118.447c-0,14.774 -0.739,31.36 -2.216,49.758c-1.478,18.392 -3.252,36.415 -5.324,54.068c-2.066,17.654 -3.985,32.722 -5.757,45.204l-56.734,0Z"
          style="fill-rule:nonzero;"/>
    <rect id="qmark2" x="1068.92" y="308.475" width="90.192" height="84.877" style="fill-rule:nonzero;"/></svg>